<svg xmlns="http://www.w3.org/2000/svg" viewBox="0 0 84.23 77.35"><defs><style>.cls-1{fill:#a3603e;}.cls-2{fill:#ffb655;}.cls-3,.cls-4{fill:none;}.cls-3,.cls-4,.cls-7,.cls-8{stroke:#000;stroke-width:2.5px;}.cls-3,.cls-4,.cls-8{stroke-linecap:round;}.cls-3{stroke-linejoin:round;}.cls-4,.cls-7,.cls-8{stroke-miterlimit:10;}.cls-5{fill:#ffd422;}.cls-6{fill:#40a340;}.cls-7{fill:#c41414;}.cls-8{fill:#faf8ed;}</style></defs><g id="Layer_2" data-name="Layer 2"><g id="Layer_1-2" data-name="Layer 1"><rect class="cls-1" x="4.6" y="40.5" width="75.02" height="10.16" rx="5.08"/><path class="cls-2" d="M79.4,51H4.84a3.58,3.58,0,0,0-3.59,3.58h0c0,11.91,16.48,21.56,28.39,21.56h25C68.8,76.1,83,66.45,83,54.54h0A3.58,3.58,0,0,0,79.4,51Z"/><path class="cls-3" d="M38.64,51H4.84a3.58,3.58,0,0,0-3.59,3.58h0c0,11.91,16.48,21.56,28.39,21.56h25a33.92,33.92,0,0,0,11.88-2.21"/><path class="cls-3" d="M78.18,66.12A17.43,17.43,0,0,0,83,54.54h0A3.58,3.58,0,0,0,79.4,51H51.75"/><path class="cls-4" d="M37.89,50.66H9.68A5.08,5.08,0,0,1,4.6,45.58h0"/><path class="cls-4" d="M79.63,45.58h0a5.08,5.08,0,0,1-5.08,5.08h-22"/><path class="cls-5" d="M60.74,39.34a.91.91,0,0,1,.64,1.55L51,51.3a7.31,7.31,0,0,1-10.36,0L30.2,40.89a.91.91,0,0,1,.65-1.55Z"/><path class="cls-6" d="M6.25,34S-.11,38.46,4.71,44C7.89,47.29,12,43.6,12,43.6l2.09-1.41s2.55-2.73,6.82.37S25.27,48,31.09,44.28s5.45-4.09,10.59,0,6.43,1.19,9.16-1.27,5-2.63,9.18.59,5.65,2.69,7.92-.41,5.37-.54,7.55,1.19,7.1.36,6-5.1S75.67,34,75.67,34Z"/><path class="cls-4" d="M31.09,44.28c5.83-3.73,5.45-4.09,10.59,0s6.43,1.19,9.16-1.27,5-2.63,9.18.59,5.65,2.69,7.92-.41,5.37-.54,7.55,1.19,7.1.36,6-5.1a6.79,6.79,0,0,0-1.87-3.67"/><path class="cls-4" d="M4.83,35.31c-1.54,1.71-3.37,5-.12,8.7C7.89,47.29,12,43.6,12,43.6l2.09-1.41s1.9-2,5.18-.59"/><path class="cls-7" d="M79.86,31.47a5.09,5.09,0,0,1-5.08,5.08H31.41a1.78,1.78,0,0,0-1.78,1.77V48.89a1.77,1.77,0,0,1-1.77,1.77h0a1.77,1.77,0,0,0-1.77,1.77v4a5.47,5.47,0,0,1-5.46,5.46h0a5.46,5.46,0,0,1-5.46-5.46V49.1a1.77,1.77,0,0,1,1.77-1.77h1.12a1.77,1.77,0,0,0,1.77-1.77V38.32a1.77,1.77,0,0,0-1.77-1.77H9.92a5.08,5.08,0,1,1,0-10.16H74.78A5.09,5.09,0,0,1,79.86,31.47Z"/><path class="cls-5" d="M44.58,21.85a.91.91,0,0,1,.64,1.56L34.81,33.82a7.33,7.33,0,0,1-10.36,0L14,23.41a.92.92,0,0,1,.65-1.56Z"/><path class="cls-4" d="M59.13,43.12l-8.7,8.71a7.33,7.33,0,0,1-10.36,0l-8.66-7.67"/><path class="cls-4" d="M42.18,26.45l-7.37,7.37a7.33,7.33,0,0,1-10.36,0l-7.36-7.37"/><path class="cls-2" d="M79.4,26.39H4.84a3.58,3.58,0,0,1-3.59-3.58h0C1.25,10.9,17.73,1.25,29.64,1.25h25C68.8,1.25,83,10.9,83,22.81h0A3.58,3.58,0,0,1,79.4,26.39Z"/><path class="cls-8" d="M54,17.27a2.36,2.36,0,0,1-2,3.57h0A2.35,2.35,0,0,1,50,17.34h0l1.57-2.84a.48.48,0,0,1,.83,0L54,17.27Z"/><path class="cls-8" d="M44.2,8.81a2.35,2.35,0,0,1-2,3.56h0a2.35,2.35,0,0,1-2.1-3.49h0L41.7,6a.48.48,0,0,1,.83,0L44.2,8.81Z"/><path class="cls-8" d="M34.39,17A2.35,2.35,0,0,1,32,20.34h0a2.35,2.35,0,0,1-1.66-3.72h0L32.25,14a.48.48,0,0,1,.82.08l1.32,3Z"/><path class="cls-8" d="M24.53,10.77a2.36,2.36,0,0,1-3.35,2.33h0A2.35,2.35,0,0,1,20.84,9h0l2.67-1.85a.47.47,0,0,1,.74.35l.28,3.23Z"/><path class="cls-8" d="M63.53,9a2.36,2.36,0,0,1,0,4.08h0a2.35,2.35,0,0,1-3.53-2h0V7.81a.48.48,0,0,1,.72-.42L63.53,9Z"/><path class="cls-4" d="M17.57,3.94A31.83,31.83,0,0,1,29.64,1.25h25C68.8,1.25,83,10.9,83,22.81h0a3.58,3.58,0,0,1-3.58,3.58H4.84a3.58,3.58,0,0,1-3.59-3.58h0c0-4.7,2.57-9,6.41-12.6"/></g></g></svg>