<svg xmlns="http://www.w3.org/2000/svg" viewBox="0 0 84.78 55.75"><defs><style>.cls-1{fill:#82d1d1;}.cls-2,.cls-4{fill:none;}.cls-2,.cls-4,.cls-5,.cls-8{stroke:#000;stroke-linecap:round;stroke-width:2.5px;}.cls-2{stroke-miterlimit:10;}.cls-3,.cls-5{fill:#e0e0e0;}.cls-4,.cls-5,.cls-8{stroke-linejoin:round;}.cls-6,.cls-8{fill:#c5f0ff;}.cls-7{fill:#c41414;}</style></defs><g id="Layer_2" data-name="Layer 2"><g id="Layer_1-2" data-name="Layer 1"><path class="cls-1" d="M2.64,47.89H82.15a1.39,1.39,0,0,1,1.39,1.39v0a5.22,5.22,0,0,1-5.22,5.22H6.47a5.22,5.22,0,0,1-5.22-5.22v0a1.39,1.39,0,0,1,1.39-1.39Z"/><path class="cls-2" d="M13.39,54.45H6.47a5.22,5.22,0,0,1-5.22-5.22h0a1.39,1.39,0,0,1,1.39-1.39H82.15a1.38,1.38,0,0,1,1.38,1.39h0a5.22,5.22,0,0,1-5.22,5.22H28.8"/><path class="cls-3" d="M42.51,47.78H9.27c0-18,15-32.75,33.24-32.75S75.74,29.81,75.74,47.78Z"/><path class="cls-4" d="M73.45,35.9a32,32,0,0,1,2.29,11.88H9.27c0-18,15-32.75,33.24-32.75a33.12,33.12,0,0,1,7.15.78"/><path class="cls-5" d="M17.09,40s1.78-8.77,8.35-12.2"/><circle class="cls-5" cx="42.54" cy="9.58" r="5.45"/><path class="cls-6" d="M65.39,33.32H62a9.11,9.11,0,0,1-9.11-9.12L54.72,1.25H72.9l1.6,23A9.11,9.11,0,0,1,65.39,33.32Z"/><path class="cls-7" d="M65.66,33.32H61.48a8.43,8.43,0,0,1-8.42-8.43l.36-7.61H73.85l.24,7.61A8.43,8.43,0,0,1,65.66,33.32Z"/><path class="cls-4" d="M65.39,33.32H62a9.11,9.11,0,0,1-9.11-9.12L54.72,1.25H72.9l1.6,23A9.11,9.11,0,0,1,65.39,33.32Z"/><line class="cls-4" x1="63.68" y1="33.32" x2="63.68" y2="47.78"/><polygon class="cls-8" points="74.86 54.5 52.52 54.5 52.52 51.58 63.69 47.84 74.86 51.58 74.86 54.5"/><line class="cls-2" x1="53.42" y1="17.28" x2="73.85" y2="17.28"/></g></g></svg>