<svg xmlns="http://www.w3.org/2000/svg" viewBox="0 0 84.41 84.26"><defs><style>.cls-1{fill:#82d1d1;}.cls-2,.cls-7,.cls-9{fill:none;}.cls-11,.cls-2,.cls-4,.cls-5,.cls-7,.cls-9{stroke:#000;stroke-width:2.5px;}.cls-11,.cls-2,.cls-4,.cls-5,.cls-7{stroke-linecap:round;}.cls-2,.cls-4,.cls-5{stroke-linejoin:round;}.cls-3{fill:#b2b6bb;}.cls-4{fill:#f2d6ad;}.cls-10,.cls-5{fill:#ff9017;}.cls-11,.cls-6{fill:#f5cf88;}.cls-11,.cls-7,.cls-9{stroke-miterlimit:10;}.cls-8{fill:#f19846;}</style></defs><g id="Layer_2" data-name="Layer 2"><g id="Layer_1-2" data-name="Layer 1"><path class="cls-1" d="M1.25,65.55H83.16a0,0,0,0,1,0,0v0A12.89,12.89,0,0,1,70.27,78.44H14.14A12.89,12.89,0,0,1,1.25,65.55v0a0,0,0,0,1,0,0Z"/><path class="cls-2" d="M76.39,76.89a12.75,12.75,0,0,1-6.12,1.55H14.14A12.89,12.89,0,0,1,1.25,65.55H83.16A13.09,13.09,0,0,1,83,67.73"/><rect class="cls-3" x="11.6" y="78.44" width="60.59" height="4.57"/><rect class="cls-2" x="11.6" y="78.44" width="60.59" height="4.57"/><polyline class="cls-4" points="12.92 38.4 12.92 5.82 26.17 5.82 26.17 65.55 12.92 65.55 12.92 49.66"/><rect class="cls-5" x="17.03" y="5.82" width="4.72" height="59.73"/><path class="cls-6" d="M48.31,58.71H35.73c0-7.23,5.68-13.17,12.58-13.17s12.57,5.95,12.57,13.18Z"/><path class="cls-7" d="M38.37,50.66a12.41,12.41,0,0,1,9.94-5.13c6.89,0,12.57,5.93,12.57,13.13H35.73A14,14,0,0,1,36,56"/><path class="cls-8" d="M48.31,58.66H39.89a8.42,8.42,0,1,1,16.83,0Z"/><path class="cls-9" d="M48.31,58.66H39.89a8.42,8.42,0,1,1,16.83,0Z"/><path class="cls-10" d="M48.31,58.66H44.1a4.21,4.21,0,1,1,8.41,0Z"/><path class="cls-9" d="M48.31,58.66H44.1a4.21,4.21,0,1,1,8.41,0Z"/><path class="cls-6" d="M61.7,65.37H49.13c0-7.22,5.68-13.16,12.57-13.16s12.58,5.94,12.58,13.17Z"/><path class="cls-11" d="M72.54,58.72a13.56,13.56,0,0,1,1.74,6.65H49.13c0-7.22,5.68-13.16,12.57-13.16a12,12,0,0,1,5.35,1.26"/><path class="cls-8" d="M61.7,65.33H53.29a8.42,8.42,0,1,1,16.83,0Z"/><path class="cls-9" d="M61.7,65.33H53.29a8.42,8.42,0,1,1,16.83,0Z"/><path class="cls-10" d="M61.7,65.33H57.5a4.2,4.2,0,1,1,8.4,0Z"/><path class="cls-9" d="M61.7,65.33H57.5a4.2,4.2,0,1,1,8.4,0Z"/><path class="cls-6" d="M35.73,52.44A11.25,11.25,0,0,1,38,52.22c6.9,0,12.57,6,12.57,13.18H25.41a13.1,13.1,0,0,1,10.32-13"/><path class="cls-7" d="M34.6,52.71A11.93,11.93,0,0,1,38,52.22c6.9,0,12.57,6,12.57,13.18H25.41a13.53,13.53,0,0,1,3.64-9.23"/><path class="cls-8" d="M38,65.35H29.57A8.65,8.65,0,0,1,38,56.57a8.64,8.64,0,0,1,8.41,8.78Z"/><path class="cls-9" d="M38,65.35H29.57A8.65,8.65,0,0,1,38,56.57a8.64,8.64,0,0,1,8.41,8.78Z"/><path class="cls-10" d="M38,65.35h-4.2a4.2,4.2,0,1,1,8.4,0Z"/><path class="cls-9" d="M38,65.35h-4.2a4.2,4.2,0,1,1,8.4,0Z"/><path class="cls-7" d="M47.23,11.75H36.77a4.28,4.28,0,0,0-3.24,1.38c-1.42,1.52-3.2,2.43-6.45,2.18"/><path class="cls-7" d="M57,11.75H53"/><path class="cls-7" d="M12.92,1.25H29a4.71,4.71,0,0,1,1.78.35,19.74,19.74,0,0,1,4.17,2.85,2,2,0,0,0,1.7.58H78.69s2.74.53,2.84,3.07S80.06,11.55,79,11.75H62.86"/><line class="cls-7" x1="28.86" y1="5.82" x2="25.56" y2="5.82"/><line class="cls-7" x1="28.86" y1="10.79" x2="27.33" y2="10.79"/></g></g></svg>