<svg xmlns="http://www.w3.org/2000/svg" viewBox="0 0 84.68 77.03"><defs><style>.cls-1{fill:#f5cf88;}.cls-2,.cls-7{fill:none;}.cls-2,.cls-4,.cls-5,.cls-6,.cls-7,.cls-8{stroke:#000;stroke-width:2.5px;}.cls-2,.cls-6,.cls-8{stroke-linecap:round;}.cls-2,.cls-4,.cls-5,.cls-6,.cls-7{stroke-miterlimit:10;}.cls-3{fill:#fcaf70;}.cls-4{fill:#f19846;}.cls-5,.cls-6{fill:#c41414;}.cls-8{fill:#c69471;stroke-linejoin:round;}</style></defs><g id="Layer_2" data-name="Layer 2"><g id="Layer_1-2" data-name="Layer 1"><path class="cls-1" d="M23.77,4.33A36.73,36.73,0,0,1,38.51,1.25a37.27,37.27,0,0,1,24.75,9.4,2.09,2.09,0,0,1,.09,3L42.06,35a2.08,2.08,0,0,0,1.46,3.55l30.11.07a2.08,2.08,0,0,1,2.08,2.21A37.26,37.26,0,1,1,17.4,7.89"/><path class="cls-2" d="M27.84,2.83A36.63,36.63,0,0,1,38.51,1.25a37.27,37.27,0,0,1,24.75,9.4,2.09,2.09,0,0,1,.09,3L42.06,35a2.08,2.08,0,0,0,1.46,3.55l30.11.07a2.08,2.08,0,0,1,2.08,2.21A37.26,37.26,0,1,1,17.4,7.89"/><path class="cls-3" d="M83.43,35.17l-36.57-.08L72.1,10a1.66,1.66,0,0,1,2.39.06A33.67,33.67,0,0,1,83.43,30"/><path class="cls-2" d="M83.43,35.17,47.35,35.1a.2.2,0,0,1-.14-.35L72.1,10a1.66,1.66,0,0,1,2.41.08A37.23,37.23,0,0,1,82.42,24"/><path class="cls-4" d="M38.47,38.63l32.82,0v0A32.82,32.82,0,1,1,38.47,5.82,32.42,32.42,0,0,1,61.55,15.3Z"/><path class="cls-4" d="M47.89,34.1,70.45,12.16A32.86,32.86,0,0,1,80,35.06l-31.69,0A.58.58,0,0,1,47.89,34.1Z"/><line class="cls-2" x1="12.55" y1="12.95" x2="25.13" y2="25.53"/><line class="cls-2" x1="12.55" y1="64.72" x2="25.29" y2="51.98"/><line class="cls-2" x1="38.47" y1="28.82" x2="38.47" y2="48.13"/><line class="cls-2" x1="31.06" y1="39" x2="39.08" y2="39"/><line class="cls-2" x1="37.87" y1="38.47" x2="41.96" y2="42.39"/><circle class="cls-5" cx="18.36" cy="38.55" r="8.13"/><path class="cls-6" d="M47.09,57.33a8.14,8.14,0,1,1,5.45,2.1"/><rect x="48.26" y="49.65" width="2.32" height="2.32" rx="0.62"/><rect x="20.36" y="37.23" width="2.32" height="2.32" rx="0.62"/><rect x="17.4" y="40.76" width="2.32" height="2.32" rx="0.63"/><rect x="14.03" y="37.23" width="2.32" height="2.32" rx="0.58"/><rect x="17.4" y="33.95" width="2.32" height="2.32" rx="0.7"/><rect x="14.39" y="23.61" width="2.32" height="2.32" rx="0.68"/><rect x="41.68" y="24.37" width="2.32" height="2.32" rx="0.64"/><rect x="27.09" y="47.05" width="3.77" height="2.93" rx="1.13" transform="translate(-25.82 34.7) rotate(-45)"/><rect x="26.61" y="27.49" width="3.77" height="2.93" rx="1.13" transform="translate(28.82 -11.67) rotate(45)"/><rect x="42.84" y="17.92" width="2.32" height="2.32" rx="0.58"/><rect x="62.17" y="30.81" width="2.32" height="2.32" rx="0.58"/><rect x="70.75" y="30.81" width="2.32" height="2.32" rx="0.63"/><rect x="65.12" y="42.24" width="2.32" height="2.32" rx="0.65"/><rect x="45.57" y="63.48" width="2.32" height="2.32" rx="0.55"/><rect x="41.68" y="58.76" width="2.32" height="2.32" rx="0.57"/><rect x="50.09" y="15.59" width="2.32" height="2.32" rx="0.72"/><rect x="44.77" y="11.47" width="2.32" height="2.32" rx="0.58"/><rect x="51.38" y="53.44" width="2.32" height="2.32" rx="0.5"/><rect x="54.65" y="49.83" width="2.32" height="2.32" rx="0.49"/><rect x="51.48" y="46.43" width="2.32" height="2.32" rx="0.61"/><line class="cls-7" x1="1.25" y1="39" x2="5.66" y2="39"/><line class="cls-7" x1="38.51" y1="71.99" x2="38.51" y2="75.78"/><line class="cls-7" x1="62.58" y1="60.81" x2="66.02" y2="63.54"/><line class="cls-7" x1="38.51" y1="1.25" x2="38.51" y2="5.82"/><path class="cls-8" d="M28.51,11.64l4.81-1.27L34.5,15l2.3-.57s1.69-.16,2.53,2.13c.58,2.36-.26,3.13-.92,3.57l-8.64,2.29S28,23,27,20.26c-.64-2.7.86-3.45,1.08-3.53l1.67-.45Z"/><path class="cls-8" d="M35.62,65.68l-5-.16.2-4.81-2.37-.11s-1.66-.32-1.81-2.76c.12-2.44,1.14-2.93,1.9-3.16l8.94.28s1.84,0,2.06,2.9c-.17,2.77-1.82,3.06-2,3.07l-1.73,0Z"/><path class="cls-8" d="M65.13,17.37l-7.75,7.48,3.37,3.49L64.18,25l1.67,1.68s1.36,1,3.27-.51c1.72-1.73,1.4-2.82,1.06-3.53Z"/></g></g></svg>