<svg xmlns="http://www.w3.org/2000/svg" viewBox="0 0 85.04 26.06"><defs><style>.cls-1{fill:#b2b6bb;}.cls-1,.cls-2,.cls-3,.cls-4,.cls-5,.cls-6,.cls-7,.cls-8{stroke:#000;stroke-width:2.5px;}.cls-1,.cls-2,.cls-4,.cls-5,.cls-6,.cls-7,.cls-8{stroke-linecap:round;stroke-linejoin:round;}.cls-2{fill:#82d1d1;}.cls-3,.cls-4{fill:#a3603e;}.cls-3{stroke-miterlimit:10;}.cls-5{fill:#f5cf88;}.cls-6{fill:#40a340;}.cls-7{fill:#c41414;}.cls-8{fill:none;}</style></defs><g id="Layer_2" data-name="Layer 2"><g id="Layer_1-2" data-name="Layer 1"><path class="cls-1" d="M66.81,24.81H7.88a6.63,6.63,0,0,1-6.63-6.63V14.77H83.13v3.41a6.63,6.63,0,0,1-6.63,6.63H73.88"/><path class="cls-2" d="M12.2,3.91H27.4a1.26,1.26,0,0,1,1.26,1.26V8.56a12.87,12.87,0,0,1-1.58,6.21h-23A13,13,0,0,1,2.55,8.56V5a1.11,1.11,0,0,1,1.1-1.11H5.54"/><path class="cls-3" d="M83.54,10.77l-2.69,4h-7l4.85-7.22a1.45,1.45,0,0,1,2-.4l2.39,1.6A1.45,1.45,0,0,1,83.54,10.77Z"/><path class="cls-4" d="M76.27,8l-3.09,6.73H66.81L68.4,11.3l2.65-2.14a1.45,1.45,0,0,0,.21-2l-.6-.75L71,5.62a1.44,1.44,0,0,1,1.92-.71l2.62,1.2A1.45,1.45,0,0,1,76.27,8Z"/><path class="cls-4" d="M71.05,9.16,68.4,11.3l-4.28,3.47h-5l-.77-.95a1.45,1.45,0,0,1,.22-2L67.4,4.66a1.46,1.46,0,0,1,2,.22l1.21,1.49.6.75A1.45,1.45,0,0,1,71.05,9.16Z"/><path class="cls-4" d="M64.9,6.08,62.26,8.22,58,11.69h-1.4c.25-.45.49-.91.7-1.38l.26.13a.75.75,0,0,0,1-.42,6.45,6.45,0,0,0-.74-5.67l3.43-2.77a1.44,1.44,0,0,1,2,.21l1.22,1.5.6.74A1.46,1.46,0,0,1,64.9,6.08Z"/><path class="cls-5" d="M40.28,14.77H32.23l0-.06a6.42,6.42,0,0,1,.49-8.41.73.73,0,0,1,1.11.07l.83,1.06,2.61,3.35,1.4,1.82Z"/><path class="cls-6" d="M48.08,8.47a6.31,6.31,0,0,1-1.37,3.32h0a6,6,0,0,1-.65.69,6.3,6.3,0,0,1-4.31,1.7,7.11,7.11,0,0,1-.92-.06.6.6,0,0,1-.48-.74l.54-2.13.75-3a.59.59,0,0,1,.57-.45h5.29A.6.6,0,0,1,48.08,8.47Z"/><path class="cls-5" d="M50.29,2a6.36,6.36,0,0,1,7.54,2.4A6.45,6.45,0,0,1,58.57,10a.75.75,0,0,1-1,.42l-.26-.13c.12-.26.23-.52.34-.79a1.15,1.15,0,0,0-.36-1.31L55.16,6.52,53.65,5.3a1.44,1.44,0,0,0-2.24.58,11.67,11.67,0,0,1-.54,1.19l-3.32-1.7a.75.75,0,0,1-.27-1.09c.11-.15.22-.31.34-.45"/><path class="cls-7" d="M57.61,9.52c-.11.27-.22.53-.34.79-.21.47-.45.93-.7,1.38a16.06,16.06,0,0,1-2.28,3.08H47.17l-.71-.56a1.47,1.47,0,0,1-.41-1.72,6,6,0,0,0,.65-.69h0a12.83,12.83,0,0,0,4.16-4.72,11.67,11.67,0,0,0,.54-1.19,1.44,1.44,0,0,1,2.24-.58l1.51,1.22,2.09,1.69A1.15,1.15,0,0,1,57.61,9.52Z"/><path class="cls-7" d="M43.05,7.35c-.06.16-.12.31-.19.47H42.2a.59.59,0,0,0-.57.45l-.75,3a16.42,16.42,0,0,1-1.14,1.34H38.62l-1.4-1.82L34.61,7.43A13.38,13.38,0,0,0,36.32,4.9c.19-.38.38-.78.54-1.19a1.44,1.44,0,0,1,2.24-.58l1.5,1.22L42.7,6A1.14,1.14,0,0,1,43.05,7.35Z"/><path class="cls-7" d="M46.7,11.8a6,6,0,0,1-.65.69,1.41,1.41,0,0,1,.5-.59Z"/><line class="cls-8" x1="3.39" y1="8.45" x2="19.3" y2="8.45"/></g></g></svg>